<svg version="1.1" id="Layer_1" xmlns="http://www.w3.org/2000/svg" xmlns:xlink="http://www.w3.org/1999/xlink" x="0px" y="0px" viewBox="0 0 512.001 512.001" style="enable-background:new 0 0 512.001 512.001;" xml:space="preserve" width="300" height="300" xmlns:svgjs="http://svgjs.dev/svgjs"><g width="100%" height="100%" transform="matrix(1,0,0,1,0,0)"><g>
	<g>
		<path style="fill-rule: evenodd; clip-rule: evenodd; stroke-miterlimit: 22.9256;" d="&#10;&#9;&#9;&#9;M7.5,361.001h497.002 M7.5,106h497.001" fill="none" fill-opacity="1" stroke="#240b36" stroke-opacity="1" data-original-stroke-color="#000000ff" stroke-width="15" data-original-stroke-width="15"/>
		<path style="fill-rule: evenodd; clip-rule: evenodd; stroke-miterlimit: 22.9256;" d="&#10;&#9;&#9;&#9;M67.5,76.001h15 M104.999,76.001h15 M30,76.001h15" fill="none" fill-opacity="1" stroke="#240b36" stroke-opacity="1" data-original-stroke-color="#000000ff" stroke-width="15" data-original-stroke-width="15"/>
		
			<line style="fill-rule: evenodd; clip-rule: evenodd; stroke-miterlimit: 22.9256;" x1="399.501" y1="76.001" x2="482.001" y2="76.001" fill="none" fill-opacity="1" stroke="#240b36" stroke-opacity="1" data-original-stroke-color="#000000ff" stroke-width="15" data-original-stroke-width="15"/>
		<path style="fill-rule: evenodd; clip-rule: evenodd; stroke-miterlimit: 22.9256;" d="&#10;&#9;&#9;&#9;M218.501,436l7.5-44.999 M293.501,436l-7.5-44.999" fill="none" fill-opacity="1" stroke="#240b36" stroke-opacity="1" data-original-stroke-color="#000000ff" stroke-width="15" data-original-stroke-width="15"/>
		<path style="fill-rule: evenodd; clip-rule: evenodd; stroke-miterlimit: 22.9256;" d="&#10;&#9;&#9;&#9;M474.501,143.5v-15 M474.501,173.5v-15" fill="none" fill-opacity="1" stroke="#240b36" stroke-opacity="1" data-original-stroke-color="#000000ff" stroke-width="15" data-original-stroke-width="15"/>
		
			<polyline style="fill-rule: evenodd; clip-rule: evenodd; stroke-miterlimit: 22.9256;" points="&#10;&#9;&#9;&#9;323.503,466 361.002,466 361.002,436 151,436 151,466 308.503,466 &#9;&#9;" fill="none" fill-opacity="1" stroke="#240b36" stroke-opacity="1" data-original-stroke-color="#000000ff" stroke-width="15" data-original-stroke-width="15"/>
		
			<polyline style="fill-rule: evenodd; clip-rule: evenodd; stroke-miterlimit: 22.9256;" points="&#10;&#9;&#9;&#9;7.5,143.5 7.5,46.001 504.501,46.001 504.501,391.001 7.5,391.001 7.5,158.5 &#9;&#9;" fill="none" fill-opacity="1" stroke="#240b36" stroke-opacity="1" data-original-stroke-color="#000000ff" stroke-width="15" data-original-stroke-width="15"/>
		
			<polygon style="fill-rule: evenodd; clip-rule: evenodd; stroke-miterlimit: 22.9256;" points="&#10;&#9;&#9;&#9;463.14,293.048 441.927,271.836 452.533,261.229 399.501,250.623 410.107,303.655 420.714,293.049 441.927,314.262 &#9;&#9;" fill="none" fill-opacity="1" stroke="#240b36" stroke-opacity="1" data-original-stroke-color="#000000ff" stroke-width="15" data-original-stroke-width="15"/>
		<path style="fill-rule: evenodd; clip-rule: evenodd; stroke-miterlimit: 22.9256;" d="&#10;&#9;&#9;&#9;M143.501,316.001h225 M143.501,151h225" fill="none" fill-opacity="1" stroke="#240b36" stroke-opacity="1" data-original-stroke-color="#000000ff" stroke-width="15" data-original-stroke-width="15"/>
		
			<polyline style="fill-rule: evenodd; clip-rule: evenodd; stroke-linecap: square; stroke-miterlimit: 10;" points="&#10;&#9;&#9;&#9;143.501,209.503 152.959,257.32 155.029,257.306 168.733,209.921 170.862,209.924 184.529,257.32 186.599,257.306 &#10;&#9;&#9;&#9;196.095,209.592 &#9;&#9;" fill="none" fill-opacity="1" stroke="#240b36" stroke-opacity="1" data-original-stroke-color="#000000ff" stroke-width="15" data-original-stroke-width="15"/>
		
			<polyline style="fill-rule: evenodd; clip-rule: evenodd; stroke-linecap: square; stroke-miterlimit: 10;" points="&#10;&#9;&#9;&#9;229.703,209.592 239.162,257.409 241.232,257.395 254.936,210.01 257.065,210.013 270.731,257.409 272.801,257.395 &#10;&#9;&#9;&#9;282.297,209.681 &#9;&#9;" fill="none" fill-opacity="1" stroke="#240b36" stroke-opacity="1" data-original-stroke-color="#000000ff" stroke-width="15" data-original-stroke-width="15"/>
		
			<polyline style="fill-rule: evenodd; clip-rule: evenodd; stroke-linecap: square; stroke-miterlimit: 10;" points="&#10;&#9;&#9;&#9;315.906,209.681 325.364,257.498 327.434,257.484 341.138,210.099 343.268,210.102 356.934,257.498 359.004,257.484 368.5,209.77 &#10;&#9;&#9;&#9;&#9;&#9;" fill="none" fill-opacity="1" stroke="#240b36" stroke-opacity="1" data-original-stroke-color="#000000ff" stroke-width="15" data-original-stroke-width="15"/>
	</g>
</g><g>
</g><g>
</g><g>
</g><g>
</g><g>
</g><g>
</g><g>
</g><g>
</g><g>
</g><g>
</g><g>
</g><g>
</g><g>
</g><g>
</g><g>
</g></g></svg>