<svg width="96" height="115" viewBox="0 0 96 115" fill="none" xmlns="http://www.w3.org/2000/svg">
<rect x="0.25" y="0.25" width="95.5" height="114.5" rx="7.75" fill="#FCFBFD" stroke="#240B36" stroke-width="0.5"/>
<path d="M79.2075 32.8491C79.2075 35.6302 76.932 37.9057 74.1509 37.9057H21.0566C18.2755 37.9057 16 35.6302 16 32.8491V29.0566C16 26.2755 18.2755 24 21.0566 24H74.1509C76.932 24 79.2075 26.2755 79.2075 29.0566V32.8491Z" stroke="#240B36" stroke-width="2" stroke-miterlimit="10" stroke-linecap="round" stroke-linejoin="round"/>
<path d="M24.8481 32.4702C25.5463 32.4702 26.1123 31.9042 26.1123 31.206C26.1123 30.5079 25.5463 29.9419 24.8481 29.9419C24.15 29.9419 23.584 30.5079 23.584 31.206C23.584 31.9042 24.15 32.4702 24.8481 32.4702Z" stroke="#6F5F7B" stroke-width="2" stroke-miterlimit="10" stroke-linecap="round" stroke-linejoin="round"/>
<path d="M32.4341 32.4702C33.1322 32.4702 33.6982 31.9042 33.6982 31.206C33.6982 30.5079 33.1322 29.9419 32.4341 29.9419C31.7359 29.9419 31.1699 30.5079 31.1699 31.206C31.1699 31.9042 31.7359 32.4702 32.4341 32.4702Z" stroke="#6F5F7B" stroke-width="2" stroke-miterlimit="10" stroke-linecap="round" stroke-linejoin="round"/>
<path d="M40.0185 32.4702C40.7167 32.4702 41.2827 31.9042 41.2827 31.206C41.2827 30.5079 40.7167 29.9419 40.0185 29.9419C39.3204 29.9419 38.7544 30.5079 38.7544 31.206C38.7544 31.9042 39.3204 32.4702 40.0185 32.4702Z" stroke="#6F5F7B" stroke-width="2" stroke-miterlimit="10" stroke-linecap="round" stroke-linejoin="round"/>
<path d="M47.6035 31.585H71.6224" stroke="#AE1028" stroke-width="2" stroke-miterlimit="10" stroke-linecap="round" stroke-linejoin="round"/>
<path d="M40.0189 56.8679H21.0566C18.2755 56.8679 16 54.5925 16 51.8113V48.0189C16 45.2378 18.2755 42.9623 21.0566 42.9623H74.1509C76.932 42.9623 79.2075 45.2378 79.2075 48.0189V51.8113C79.2075 52.8227 78.9547 53.7076 78.449 54.4661" stroke="#240B36" stroke-width="2" stroke-miterlimit="10" stroke-linecap="round" stroke-linejoin="round"/>
<path d="M24.8481 51.4325C25.5463 51.4325 26.1123 50.8665 26.1123 50.1683C26.1123 49.4702 25.5463 48.9042 24.8481 48.9042C24.15 48.9042 23.584 49.4702 23.584 50.1683C23.584 50.8665 24.15 51.4325 24.8481 51.4325Z" stroke="#240B36" stroke-opacity="0.65" stroke-width="2" stroke-miterlimit="10" stroke-linecap="round" stroke-linejoin="round"/>
<path d="M32.4341 51.4325C33.1322 51.4325 33.6982 50.8665 33.6982 50.1683C33.6982 49.4702 33.1322 48.9042 32.4341 48.9042C31.7359 48.9042 31.1699 49.4702 31.1699 50.1683C31.1699 50.8665 31.7359 51.4325 32.4341 51.4325Z" stroke="#240B36" stroke-opacity="0.65" stroke-width="2" stroke-miterlimit="10" stroke-linecap="round" stroke-linejoin="round"/>
<path d="M40.0185 51.4325C40.7167 51.4325 41.2827 50.8665 41.2827 50.1683C41.2827 49.4702 40.7167 48.9042 40.0185 48.9042C39.3204 48.9042 38.7544 49.4702 38.7544 50.1683C38.7544 50.8665 39.3204 51.4325 40.0185 51.4325Z" stroke="#240B36" stroke-opacity="0.65" stroke-width="2" stroke-miterlimit="10" stroke-linecap="round" stroke-linejoin="round"/>
<path d="M38.7547 75.8305H21.0566C18.2755 75.8305 16 73.555 16 70.7739V66.9814C16 64.2003 18.2755 61.9248 21.0566 61.9248H36.2264" stroke="#240B36" stroke-width="2" stroke-miterlimit="10" stroke-linecap="round" stroke-linejoin="round"/>
<path d="M24.8481 70.3941C25.5463 70.3941 26.1123 69.8282 26.1123 69.13C26.1123 68.4318 25.5463 67.8658 24.8481 67.8658C24.15 67.8658 23.584 68.4318 23.584 69.13C23.584 69.8282 24.15 70.3941 24.8481 70.3941Z" stroke="#240B36" stroke-opacity="0.65" stroke-width="2" stroke-miterlimit="10" stroke-linecap="round" stroke-linejoin="round"/>
<path d="M32.4341 70.3941C33.1322 70.3941 33.6982 69.8282 33.6982 69.13C33.6982 68.4318 33.1322 67.8658 32.4341 67.8658C31.7359 67.8658 31.1699 68.4318 31.1699 69.13C31.1699 69.8282 31.7359 70.3941 32.4341 70.3941Z" stroke="#240B36" stroke-opacity="0.65" stroke-width="2" stroke-miterlimit="10" stroke-linecap="round" stroke-linejoin="round"/>
<path d="M47.6049 91.0001C49.6995 91.0001 51.3974 89.3021 51.3974 87.2076C51.3974 85.1131 49.6995 83.4152 47.6049 83.4152C45.5104 83.4152 43.8125 85.1131 43.8125 87.2076C43.8125 89.3021 45.5104 91.0001 47.6049 91.0001Z" stroke="#240B36" stroke-width="2" stroke-miterlimit="10" stroke-linecap="round" stroke-linejoin="round"/>
<path d="M47.605 83.4153V79.6228" stroke="#240B36" stroke-width="2" stroke-miterlimit="10" stroke-linecap="round" stroke-linejoin="round"/>
<path d="M51.395 87.2083H70.3573" stroke="#240B36" stroke-width="2" stroke-miterlimit="10" stroke-linecap="round" stroke-linejoin="round"/>
<path d="M24.8496 87.2083H43.8119" stroke="#240B36" stroke-width="2" stroke-miterlimit="10" stroke-linecap="round" stroke-linejoin="round"/>
<path d="M45.328 58.3856C41.662 59.5233 38.8809 62.8101 38.8809 66.8554C38.8809 71.7856 42.9261 75.7045 47.8563 75.7045H68.5884C74.4035 75.578 79.2072 70.9007 79.2072 64.9592C79.2072 59.0177 74.4035 54.2139 68.462 54.2139C67.5771 54.2139 66.5657 54.3403 65.8073 54.5932C65.1752 50.295 61.3827 46.8818 56.9582 46.8818C52.028 46.8818 47.9827 50.9271 47.9827 55.8573C47.9827 56.4894 48.1092 57.2479 48.2356 57.8799L45.328 58.3856Z" stroke="#240B36" stroke-width="2" stroke-miterlimit="10" stroke-linecap="round" stroke-linejoin="round"/>
</svg>
