<svg xmlns="http://www.w3.org/2000/svg" viewBox="0 0 1200 700" fill="none">
  <rect width="1200" height="700" rx="36" fill="#F8FAFC"/>
  <rect width="1200" height="120" fill="#14B8A6"/>
  <rect x="80" y="36" width="180" height="48" rx="14" fill="#ECFEFF"/>
  <rect x="920" y="34" width="190" height="52" rx="26" fill="#0F172A"/>
  <rect x="230" y="150" width="740" height="92" rx="28" fill="#FFFFFF"/>
  <rect x="370" y="180" width="120" height="20" rx="10" fill="#CBD5E1"/>
  <rect x="540" y="180" width="120" height="20" rx="10" fill="#CBD5E1"/>
  <rect x="710" y="180" width="120" height="20" rx="10" fill="#CBD5E1"/>
  <rect x="80" y="290" width="1040" height="320" rx="30" fill="#E2E8F0"/>
  <circle cx="930" cy="430" r="120" fill="#0F172A"/>
  <rect x="140" y="350" width="420" height="28" rx="14" fill="#94A3B8"/>
  <rect x="140" y="402" width="320" height="20" rx="10" fill="#CBD5E1"/>
  <rect x="140" y="442" width="280" height="20" rx="10" fill="#CBD5E1"/>
  <rect x="140" y="500" width="200" height="54" rx="27" fill="#14B8A6"/>
</svg>
