<svg xmlns="http://www.w3.org/2000/svg" viewBox="0 0 1200 700" fill="none">
  <rect width="1200" height="700" rx="36" fill="#F8FAFC"/>
  <rect x="80" y="70" width="1040" height="96" rx="24" fill="#240A37"/>
  <rect x="130" y="108" width="430" height="18" rx="9" fill="#E9D5FF"/>
  <circle cx="860" cy="118" r="14" fill="#7F6F8A"/>
  <circle cx="900" cy="118" r="14" fill="#7F6F8A"/>
  <circle cx="940" cy="118" r="14" fill="#7F6F8A"/>
  <circle cx="980" cy="118" r="14" fill="#7F6F8A"/>
  <rect x="1020" y="102" width="70" height="30" rx="15" fill="#FFFFFF" fill-opacity=".14"/>

  <rect x="80" y="190" width="1040" height="110" rx="24" fill="#FFFFFF"/>
  <rect x="120" y="223" width="150" height="44" rx="14" fill="#240A37"/>
  <rect x="380" y="234" width="92" height="20" rx="10" fill="#0F172A"/>
  <rect x="502" y="234" width="92" height="20" rx="10" fill="#0F172A"/>
  <rect x="624" y="234" width="92" height="20" rx="10" fill="#0F172A"/>
  <rect x="746" y="234" width="92" height="20" rx="10" fill="#0F172A"/>
  <rect x="920" y="222" width="160" height="44" rx="14" fill="#BA112C"/>

  <rect x="80" y="330" width="1040" height="300" rx="28" fill="#E2E8F0"/>
  <rect x="130" y="390" width="380" height="26" rx="13" fill="#94A3B8"/>
  <rect x="130" y="434" width="280" height="18" rx="9" fill="#CBD5E1"/>
  <rect x="130" y="470" width="240" height="18" rx="9" fill="#CBD5E1"/>
  <rect x="130" y="528" width="190" height="52" rx="26" fill="#240A37"/>
</svg>
