<svg xmlns="http://www.w3.org/2000/svg" viewBox="0 0 1200 700" fill="none">
  <rect width="1200" height="700" rx="36" fill="#F8FAFC"/>
  <rect width="1200" height="132" fill="#FFFFFF"/>
  <rect x="70" y="52" width="90" height="18" rx="9" fill="#94A3B8"/>
  <rect x="190" y="52" width="90" height="18" rx="9" fill="#94A3B8"/>
  <rect x="310" y="52" width="90" height="18" rx="9" fill="#94A3B8"/>
  <rect x="515" y="34" width="170" height="54" rx="18" fill="#0F172A"/>
  <rect x="910" y="34" width="210" height="54" rx="27" fill="#14B8A6"/>
  <rect x="90" y="200" width="470" height="420" rx="26" fill="#E2E8F0"/>
  <rect x="640" y="200" width="470" height="420" rx="26" fill="#D6EEF5"/>
  <rect x="140" y="260" width="290" height="24" rx="12" fill="#94A3B8"/>
  <rect x="140" y="308" width="220" height="18" rx="9" fill="#CBD5E1"/>
  <rect x="140" y="346" width="250" height="18" rx="9" fill="#CBD5E1"/>
  <rect x="140" y="410" width="180" height="54" rx="27" fill="#0F172A"/>
  <rect x="700" y="270" width="170" height="170" rx="20" fill="#FFFFFF"/>
  <rect x="900" y="270" width="140" height="36" rx="18" fill="#14B8A6"/>
  <rect x="900" y="328" width="120" height="16" rx="8" fill="#94A3B8"/>
  <rect x="900" y="366" width="110" height="16" rx="8" fill="#94A3B8"/>
</svg>
