<svg xmlns="http://www.w3.org/2000/svg" viewBox="0 0 1200 700" fill="none">
  <rect width="1200" height="700" rx="36" fill="#F8FAFC"/>
  <rect x="100" y="120" width="1000" height="460" rx="34" fill="#020617"/>
  <rect x="170" y="210" width="220" height="22" rx="11" fill="#F8FAFC"/>
  <rect x="170" y="252" width="260" height="18" rx="9" fill="#94A3B8"/>
  <rect x="170" y="294" width="220" height="18" rx="9" fill="#94A3B8"/>
  <circle cx="205" cy="360" r="18" fill="#14B8A6"/>
  <circle cx="255" cy="360" r="18" fill="#14B8A6"/>
  <circle cx="305" cy="360" r="18" fill="#14B8A6"/>
  <rect x="520" y="206" width="120" height="18" rx="9" fill="#CBD5E1"/>
  <rect x="520" y="250" width="150" height="18" rx="9" fill="#64748B"/>
  <rect x="520" y="290" width="130" height="18" rx="9" fill="#64748B"/>
  <rect x="520" y="330" width="110" height="18" rx="9" fill="#64748B"/>
  <rect x="820" y="206" width="160" height="18" rx="9" fill="#CBD5E1"/>
  <rect x="820" y="250" width="170" height="18" rx="9" fill="#64748B"/>
  <rect x="820" y="290" width="160" height="18" rx="9" fill="#64748B"/>
  <rect x="170" y="474" width="860" height="2" fill="#1E293B"/>
  <rect x="170" y="512" width="210" height="18" rx="9" fill="#475569"/>
  <rect x="900" y="502" width="65" height="30" rx="10" fill="#E2E8F0"/>
  <rect x="980" y="502" width="65" height="30" rx="10" fill="#CBD5E1"/>
</svg>
