<svg xmlns="http://www.w3.org/2000/svg" viewBox="0 0 1200 700" fill="none">
  <rect width="1200" height="700" rx="36" fill="#F8FAFC"/>
  <rect x="90" y="70" width="1020" height="190" rx="34" fill="#E2E8F0"/>
  <rect x="170" y="130" width="320" height="28" rx="14" fill="#94A3B8"/>
  <rect x="170" y="180" width="220" height="18" rx="9" fill="#CBD5E1"/>
  <rect x="760" y="122" width="170" height="54" rx="27" fill="#14B8A6"/>
  <rect x="110" y="300" width="980" height="310" rx="36" fill="#0F172A"/>
  <rect x="170" y="372" width="220" height="20" rx="10" fill="#F8FAFC"/>
  <rect x="170" y="414" width="170" height="16" rx="8" fill="#94A3B8"/>
  <rect x="510" y="362" width="140" height="18" rx="9" fill="#CBD5E1"/>
  <rect x="510" y="404" width="150" height="18" rx="9" fill="#CBD5E1"/>
  <rect x="510" y="446" width="110" height="18" rx="9" fill="#CBD5E1"/>
  <rect x="780" y="362" width="170" height="18" rx="9" fill="#CBD5E1"/>
  <rect x="780" y="404" width="170" height="18" rx="9" fill="#CBD5E1"/>
  <rect x="780" y="446" width="170" height="18" rx="9" fill="#CBD5E1"/>
  <rect x="170" y="530" width="860" height="2" fill="#334155"/>
  <rect x="170" y="558" width="180" height="18" rx="9" fill="#64748B"/>
  <rect x="880" y="548" width="70" height="28" rx="10" fill="#E2E8F0"/>
  <rect x="970" y="548" width="70" height="28" rx="10" fill="#CBD5E1"/>
</svg>
