<svg width="67" height="66" viewBox="0 0 67 66" fill="none" xmlns="http://www.w3.org/2000/svg">
<g clip-path="url(#clip0_380_1697)">
<path d="M59.7675 47.7854H58.7104H57.6534H38.6526V49.719L33.9347 45.6843L38.6526 41.6366V43.5702H57.6663H58.7233H59.7804V19.2714H6.96748V30.8858H8.02451H9.08154H28.0823V28.9522L32.8003 32.987L28.0823 37.0346V35.101H9.06865H8.01162H6.95459V59.3999H59.7675V47.7854ZM9.06865 57.2987V37.228H25.9683V41.6366L36.0358 32.9999L25.9683 24.3632V28.7718H9.06865V21.3725H57.6534V41.4432H40.7667V37.0346L30.6991 45.6714L40.7667 54.3081V49.8995H57.6663V57.2987H9.06865Z" fill="#240B36"/>
<path d="M2.625 0.257812C1.52043 0.257812 0.625 1.15324 0.625 2.25781V12.9293V15.0434V63.7422C0.625 64.8467 1.52043 65.7422 2.625 65.7422H64.1094C65.2139 65.7422 66.1094 64.8467 66.1094 63.7422V15.0434V12.9293V2.25781C66.1094 1.15324 65.2139 0.257812 64.1094 0.257812H2.625ZM63.9953 61.6281C63.9953 62.7327 63.0999 63.6281 61.9953 63.6281H4.73906C3.63449 63.6281 2.73906 62.7327 2.73906 61.6281V17.0434C2.73906 15.9388 3.63449 15.0434 4.73906 15.0434H61.9953C63.0999 15.0434 63.9953 15.9388 63.9953 17.0434V61.6281ZM4.73906 12.9293C3.63449 12.9293 2.73906 12.0339 2.73906 10.9293V4.37187C2.73906 3.2673 3.63449 2.37187 4.73906 2.37187H61.9953C63.0999 2.37187 63.9953 3.26731 63.9953 4.37187V10.9293C63.9953 12.0339 63.0999 12.9293 61.9953 12.9293H4.73906Z" fill="#240B36"/>
<path d="M6.96729 6.59998H32.3103V8.71404H6.96729V6.59998Z" fill="#C21D00"/>
<path d="M56.9181 4.79529L55.5517 6.16169L54.1853 4.79529L52.6899 6.2906L54.0563 7.65701L52.6899 9.01052L54.1853 10.5058L55.5517 9.13943L56.9181 10.5058L58.4005 9.01052L57.047 7.65701L58.4005 6.2906L56.9181 4.79529Z" fill="#240B36"/>
<path d="M34.4248 6.6001H36.5389V8.71416H34.4248V6.6001Z" fill="#C21D00"/>
<path d="M38.6523 6.59998H40.7664V8.71404H38.6523V6.59998Z" fill="#C21D00"/>
<path d="M42.8682 6.6001H44.9822V8.71416H42.8682V6.6001Z" fill="#C21D00"/>
</g>
<defs>
<clipPath id="clip0_380_1697">
<rect width="66" height="66" fill="white" transform="translate(0.367188)"/>
</clipPath>
</defs>
</svg>
