<svg width="69" height="73" viewBox="0 0 69 73" fill="none" xmlns="http://www.w3.org/2000/svg">
<path d="M67.0926 11.2015C67.0926 14.0934 64.7265 16.4595 61.8346 16.4595H6.62567C3.73377 16.4595 1.36768 14.0934 1.36768 11.2015V7.258C1.36768 4.3661 3.73377 2 6.62567 2H61.8346C64.7265 2 67.0926 4.3661 67.0926 7.258V11.2015Z" stroke="#240B36" stroke-width="2.5" stroke-miterlimit="10" stroke-linecap="round" stroke-linejoin="round"/>
<path d="M10.5689 10.8076C11.2949 10.8076 11.8834 10.2191 11.8834 9.49309C11.8834 8.76711 11.2949 8.17859 10.5689 8.17859C9.84292 8.17859 9.25439 8.76711 9.25439 9.49309C9.25439 10.2191 9.84292 10.8076 10.5689 10.8076Z" stroke="#C21D00" stroke-width="2.5" stroke-miterlimit="10" stroke-linecap="round" stroke-linejoin="round"/>
<path d="M18.4566 10.8076C19.1826 10.8076 19.7711 10.2191 19.7711 9.49309C19.7711 8.76711 19.1826 8.17859 18.4566 8.17859C17.7306 8.17859 17.1421 8.76711 17.1421 9.49309C17.1421 10.2191 17.7306 10.8076 18.4566 10.8076Z" stroke="#C21D00" stroke-width="2.5" stroke-miterlimit="10" stroke-linecap="round" stroke-linejoin="round"/>
<path d="M26.3433 10.8076C27.0693 10.8076 27.6578 10.2191 27.6578 9.49309C27.6578 8.76711 27.0693 8.17859 26.3433 8.17859C25.6173 8.17859 25.0288 8.76711 25.0288 9.49309C25.0288 10.2191 25.6173 10.8076 26.3433 10.8076Z" stroke="#C21D00" stroke-width="2.5" stroke-miterlimit="10" stroke-linecap="round" stroke-linejoin="round"/>
<path d="M34.2305 9.88721H59.206" stroke="#C21D00" stroke-width="2.5" stroke-miterlimit="10" stroke-linecap="round" stroke-linejoin="round"/>
<path d="M26.3432 36.177H6.62567C3.73377 36.177 1.36768 33.8109 1.36768 30.919V26.9755C1.36768 24.0836 3.73377 21.7175 6.62567 21.7175H61.8346C64.7265 21.7175 67.0926 24.0836 67.0926 26.9755V30.919C67.0926 31.9706 66.8297 32.8908 66.3039 33.6795" stroke="#240B36" stroke-width="2.5" stroke-miterlimit="10" stroke-linecap="round" stroke-linejoin="round"/>
<path d="M10.5689 30.5249C11.2949 30.5249 11.8834 29.9364 11.8834 29.2104C11.8834 28.4844 11.2949 27.8959 10.5689 27.8959C9.84292 27.8959 9.25439 28.4844 9.25439 29.2104C9.25439 29.9364 9.84292 30.5249 10.5689 30.5249Z" stroke="#240B36" stroke-width="2.5" stroke-miterlimit="10" stroke-linecap="round" stroke-linejoin="round"/>
<path d="M18.4566 30.5249C19.1826 30.5249 19.7711 29.9364 19.7711 29.2104C19.7711 28.4844 19.1826 27.8959 18.4566 27.8959C17.7306 27.8959 17.1421 28.4844 17.1421 29.2104C17.1421 29.9364 17.7306 30.5249 18.4566 30.5249Z" stroke="#240B36" stroke-width="2.5" stroke-miterlimit="10" stroke-linecap="round" stroke-linejoin="round"/>
<path d="M26.3433 30.5249C27.0693 30.5249 27.6578 29.9364 27.6578 29.2104C27.6578 28.4844 27.0693 27.8959 26.3433 27.8959C25.6173 27.8959 25.0288 28.4844 25.0288 29.2104C25.0288 29.9364 25.6173 30.5249 26.3433 30.5249Z" stroke="#240B36" stroke-width="2.5" stroke-miterlimit="10" stroke-linecap="round" stroke-linejoin="round"/>
<path d="M25.0287 55.8948H6.62567C3.73377 55.8948 1.36768 53.5287 1.36768 50.6368V46.6933C1.36768 43.8014 3.73377 41.4353 6.62567 41.4353H22.3997" stroke="#240B36" stroke-width="2.5" stroke-miterlimit="10" stroke-linecap="round" stroke-linejoin="round"/>
<path d="M10.5689 50.2419C11.2949 50.2419 11.8834 49.6534 11.8834 48.9274C11.8834 48.2014 11.2949 47.6129 10.5689 47.6129C9.84292 47.6129 9.25439 48.2014 9.25439 48.9274C9.25439 49.6534 9.84292 50.2419 10.5689 50.2419Z" stroke="#240B36" stroke-width="2.5" stroke-miterlimit="10" stroke-linecap="round" stroke-linejoin="round"/>
<path d="M18.4566 50.2419C19.1826 50.2419 19.7711 49.6534 19.7711 48.9274C19.7711 48.2014 19.1826 47.6129 18.4566 47.6129C17.7306 47.6129 17.1421 48.2014 17.1421 48.9274C17.1421 49.6534 17.7306 50.2419 18.4566 50.2419Z" stroke="#240B36" stroke-width="2.5" stroke-miterlimit="10" stroke-linecap="round" stroke-linejoin="round"/>
<path d="M34.2316 71.6689C36.4095 71.6689 38.1751 69.9033 38.1751 67.7254C38.1751 65.5474 36.4095 63.7819 34.2316 63.7819C32.0536 63.7819 30.2881 65.5474 30.2881 67.7254C30.2881 69.9033 32.0536 71.6689 34.2316 71.6689Z" stroke="#240B36" stroke-width="2.5" stroke-miterlimit="10" stroke-linecap="round" stroke-linejoin="round"/>
<path d="M34.2314 63.7816V59.8381" stroke="#240B36" stroke-width="2.5" stroke-miterlimit="10" stroke-linecap="round" stroke-linejoin="round"/>
<path d="M38.1733 67.7257H57.8908" stroke="#240B36" stroke-width="2.5" stroke-miterlimit="10" stroke-linecap="round" stroke-linejoin="round"/>
<path d="M10.5698 67.7257H30.2873" stroke="#240B36" stroke-width="2.5" stroke-miterlimit="10" stroke-linecap="round" stroke-linejoin="round"/>
<path d="M31.8651 37.7552C28.053 38.9382 25.1611 42.3559 25.1611 46.5623C25.1611 51.6888 29.3675 55.7638 34.4941 55.7638H56.0519C62.0985 55.6323 67.0936 50.7687 67.0936 44.5906C67.0936 38.4124 62.0986 33.4173 55.9204 33.4173C55.0003 33.4173 53.9487 33.5488 53.16 33.8117C52.5027 29.3424 48.5592 25.7932 43.9585 25.7932C38.8319 25.7932 34.6255 29.9996 34.6255 35.1262C34.6255 35.7834 34.757 36.5721 34.8884 37.2294L31.8651 37.7552Z" stroke="#240B36" stroke-width="2.5" stroke-miterlimit="10" stroke-linecap="round" stroke-linejoin="round"/>
</svg>
