<svg width="67" height="66" viewBox="0 0 67 66" fill="none" xmlns="http://www.w3.org/2000/svg">
<g clip-path="url(#clip0_380_1721)">
<path d="M55.5542 32.0958V4.4C55.5542 3.23305 55.0906 2.11389 54.2655 1.28873C53.4403 0.46357 52.3212 0 51.1542 0L4.9542 0C3.78725 0 2.66809 0.46357 1.84293 1.28873C1.01777 2.11389 0.554199 3.23305 0.554199 4.4L0.554199 53.9C0.554199 55.067 1.01777 56.1861 1.84293 57.0113C2.66809 57.8364 3.78725 58.3 4.9542 58.3H34.4144C35.9595 60.5716 38.0152 62.4497 40.4167 63.784C42.8182 65.1182 45.4988 65.8715 48.2437 65.9834C50.9887 66.0954 53.7217 65.5629 56.2239 64.4286C58.7261 63.2944 60.9278 61.5899 62.6528 59.4517C64.3778 57.3135 65.578 54.801 66.1573 52.1155C66.7366 49.4301 66.679 46.6462 65.9889 43.987C65.2989 41.3279 63.9957 38.8672 62.1837 36.8023C60.3716 34.7373 58.1012 33.1255 55.5542 32.0958ZM4.9542 2.2H51.1542C51.7377 2.2 52.2973 2.43179 52.7098 2.84437C53.1224 3.25695 53.3542 3.81652 53.3542 4.4V8.8H2.7542V4.4C2.7542 3.81652 2.98598 3.25695 3.39856 2.84437C3.81114 2.43179 4.37072 2.2 4.9542 2.2ZM4.9542 56.1C4.37072 56.1 3.81114 55.8682 3.39856 55.4557C2.98598 55.0431 2.7542 54.4835 2.7542 53.9V11H53.3542V31.3797C49.8965 30.4575 46.2369 30.6395 42.8877 31.9H19.2542C18.9625 31.9 18.6827 32.0159 18.4764 32.2222C18.2701 32.4285 18.1542 32.7083 18.1542 33C18.1542 33.2917 18.2701 33.5715 18.4764 33.7778C18.6827 33.9841 18.9625 34.1 19.2542 34.1H38.733C35.3777 36.5024 32.9716 40.0059 31.9339 44H19.2542C18.9625 44 18.6827 44.1159 18.4764 44.3222C18.2701 44.5285 18.1542 44.8083 18.1542 45.1C18.1542 45.3918 18.2701 45.6715 18.4764 45.8778C18.6827 46.0841 18.9625 46.2 19.2542 46.2H31.5071C31.051 49.5908 31.6259 53.0404 33.1571 56.1H4.9542ZM48.9542 63.8C45.9084 63.8 42.9309 62.8968 40.3984 61.2046C37.8659 59.5125 35.892 57.1073 34.7265 54.2933C33.5609 51.4794 33.2559 48.3829 33.8501 45.3956C34.4443 42.4083 35.911 39.6643 38.0648 37.5106C40.2185 35.3568 42.9625 33.8901 45.9498 33.2959C48.9371 32.7017 52.0335 33.0067 54.8475 34.1723C57.6615 35.3379 60.0667 37.3117 61.7588 39.8442C63.451 42.3767 64.3542 45.3542 64.3542 48.4C64.3498 52.483 62.7259 56.3975 59.8388 59.2846C56.9517 62.1717 53.0372 63.7956 48.9542 63.8Z" fill="#240B36"/>
<path d="M14.1493 18.6593L13.2957 18.5317L12.9074 17.71C12.7389 17.3474 12.4703 17.0405 12.1333 16.8254C11.7962 16.6104 11.4047 16.4961 11.0049 16.4961C10.6051 16.4961 10.2136 16.6104 9.87653 16.8254C9.53948 17.0405 9.27091 17.3474 9.10246 17.71L8.71417 18.5273L7.86057 18.656C7.47159 18.7146 7.1067 18.8806 6.80701 19.1354C6.50732 19.3902 6.28475 19.7236 6.16436 20.0981C6.03534 20.4788 6.01485 20.8879 6.10519 21.2796C6.19553 21.6712 6.39313 22.03 6.67586 22.3157L7.31716 22.9636L7.16537 23.8876C7.0961 24.2885 7.14203 24.7008 7.2978 25.0766C7.45358 25.4524 7.71281 25.7763 8.04536 26.0106C8.36327 26.2385 8.73915 26.3719 9.12961 26.3952C9.52006 26.4186 9.90916 26.331 10.252 26.1426L11.0066 25.7312L11.7601 26.1426C12.1028 26.3317 12.4922 26.4197 12.883 26.3964C13.2738 26.373 13.65 26.2392 13.9678 26.0106C14.3002 25.7765 14.5594 25.4528 14.7152 25.0772C14.871 24.7016 14.9169 24.2894 14.8478 23.8887L14.696 22.9636L15.3384 22.3157C15.6207 22.0298 15.8179 21.6709 15.9081 21.2793C15.9982 20.8877 15.9777 20.4787 15.8488 20.0981C15.7274 19.7239 15.504 19.391 15.2038 19.1369C14.9036 18.8827 14.5384 18.7173 14.1493 18.6593ZM12.7292 21.8152C12.6071 21.9389 12.5161 22.0896 12.4635 22.2552C12.4109 22.4208 12.3983 22.5964 12.4267 22.7678L12.6819 24.1395L11.5313 23.5125C11.3696 23.4243 11.1885 23.3781 11.0044 23.3781C10.8203 23.3781 10.6391 23.4243 10.4775 23.5125L9.35436 24.123L9.57436 22.7678C9.60275 22.5964 9.59013 22.4208 9.53755 22.2552C9.48497 22.0896 9.39393 21.9389 9.27187 21.8152L8.17956 20.8351L9.60957 20.6151C9.78757 20.5883 9.95628 20.5183 10.1009 20.411C10.2455 20.3038 10.3616 20.1628 10.439 20.0002L11.0044 18.8342L11.5599 20.0046C11.6372 20.1672 11.7533 20.3082 11.8979 20.4154C12.0425 20.5227 12.2113 20.5927 12.3893 20.6195L13.7654 20.7691L12.7292 21.8152Z" fill="#C21D00"/>
<path d="M14.1493 30.7593L13.2957 30.6317L12.9074 29.81C12.7389 29.4474 12.4703 29.1405 12.1333 28.9254C11.7962 28.7103 11.4047 28.5961 11.0049 28.5961C10.6051 28.5961 10.2136 28.7103 9.87653 28.9254C9.53948 29.1405 9.27091 29.4474 9.10246 29.81L8.71417 30.6273L7.86057 30.756C7.47159 30.8146 7.1067 30.9806 6.80701 31.2354C6.50732 31.4902 6.28475 31.8236 6.16436 32.1981C6.03534 32.5788 6.01485 32.9879 6.10519 33.3796C6.19553 33.7712 6.39313 34.13 6.67586 34.4157L7.31716 35.0636L7.16537 35.9876C7.0961 36.3885 7.14203 36.8008 7.2978 37.1766C7.45358 37.5524 7.71281 37.8763 8.04536 38.1106C8.36327 38.3385 8.73915 38.4718 9.12961 38.4952C9.52006 38.5185 9.90916 38.431 10.252 38.2426L11.0066 37.8312L11.7601 38.2426C12.1029 38.4315 12.4923 38.5193 12.883 38.4959C13.2737 38.4726 13.6499 38.339 13.9678 38.1106C14.3002 37.8765 14.5594 37.5528 14.7152 37.1772C14.871 36.8015 14.9169 36.3894 14.8478 35.9887L14.696 35.0636L15.3384 34.4157C15.6207 34.1297 15.8179 33.7709 15.9081 33.3793C15.9982 32.9877 15.9777 32.5787 15.8488 32.1981C15.7274 31.8239 15.504 31.491 15.2038 31.2368C14.9036 30.9827 14.5384 30.8173 14.1493 30.7593ZM12.7292 33.9152C12.6071 34.0388 12.5161 34.1896 12.4635 34.3552C12.4109 34.5207 12.3983 34.6964 12.4267 34.8678L12.6819 36.2395L11.5313 35.6125C11.3696 35.5243 11.1885 35.4781 11.0044 35.4781C10.8203 35.4781 10.6391 35.5243 10.4775 35.6125L9.35436 36.223L9.57436 34.8678C9.60275 34.6964 9.59013 34.5207 9.53755 34.3552C9.48497 34.1896 9.39393 34.0388 9.27187 33.9152L8.17956 32.9351L9.60957 32.7151C9.78757 32.6883 9.95628 32.6182 10.1009 32.511C10.2455 32.4038 10.3616 32.2627 10.439 32.1002L11.0044 30.9342L11.5599 32.1046C11.6372 32.2671 11.7533 32.4082 11.8979 32.5154C12.0425 32.6226 12.2113 32.6927 12.3893 32.7195L13.7654 32.8691L12.7292 33.9152Z" fill="#C21D00"/>
<path d="M14.1493 42.8593L13.2957 42.7317L12.9074 41.91C12.7389 41.5474 12.4703 41.2405 12.1333 41.0254C11.7962 40.8103 11.4047 40.696 11.0049 40.696C10.6051 40.696 10.2136 40.8103 9.87653 41.0254C9.53948 41.2405 9.27091 41.5474 9.10246 41.91L8.71417 42.7273L7.86057 42.856C7.47159 42.9146 7.1067 43.0806 6.80701 43.3354C6.50732 43.5902 6.28475 43.9236 6.16436 44.2981C6.03534 44.6788 6.01485 45.0879 6.10519 45.4795C6.19553 45.8712 6.39313 46.23 6.67587 46.5157L7.31716 47.1636L7.16537 48.0876C7.0961 48.4885 7.14203 48.9008 7.2978 49.2766C7.45358 49.6524 7.71281 49.9763 8.04536 50.2106C8.36327 50.4385 8.73915 50.5718 9.12961 50.5952C9.52006 50.6185 9.90916 50.531 10.252 50.3426L11.0066 49.9312L11.7601 50.3426C12.1028 50.5319 12.4922 50.6201 12.8831 50.5967C13.2739 50.5733 13.6501 50.4394 13.9678 50.2106C14.3002 49.9764 14.5594 49.6528 14.7152 49.2771C14.871 48.9015 14.9169 48.4894 14.8478 48.0887L14.696 47.1636L15.3384 46.5157C15.6207 46.2297 15.8179 45.8709 15.9081 45.4793C15.9982 45.0877 15.9777 44.6787 15.8488 44.2981C15.7274 43.9239 15.504 43.591 15.2038 43.3368C14.9036 43.0826 14.5384 42.9173 14.1493 42.8593ZM12.7292 46.0152C12.6071 46.1388 12.5161 46.2896 12.4635 46.4551C12.4109 46.6207 12.3983 46.7964 12.4267 46.9678L12.6819 48.3395L11.5313 47.7125C11.3696 47.6243 11.1885 47.5781 11.0044 47.5781C10.8203 47.5781 10.6391 47.6243 10.4775 47.7125L9.35437 48.323L9.57436 46.9678C9.60275 46.7964 9.59013 46.6207 9.53755 46.4551C9.48498 46.2896 9.39393 46.1388 9.27187 46.0152L8.17957 45.0351L9.60957 44.8151C9.78757 44.7883 9.95628 44.7182 10.1009 44.611C10.2455 44.5038 10.3616 44.3627 10.439 44.2002L11.0044 43.0342L11.5599 44.2046C11.6372 44.3671 11.7533 44.5082 11.8979 44.6154C12.0425 44.7226 12.2113 44.7927 12.3893 44.8195L13.7654 44.9691L12.7292 46.0152Z" fill="#C21D00"/>
<path d="M6.0541 6.60002H7.1541C7.44584 6.60002 7.72563 6.48413 7.93192 6.27784C8.13821 6.07155 8.2541 5.79176 8.2541 5.50002C8.2541 5.20829 8.13821 4.9285 7.93192 4.72221C7.72563 4.51592 7.44584 4.40002 7.1541 4.40002H6.0541C5.76236 4.40002 5.48257 4.51592 5.27628 4.72221C5.06999 4.9285 4.9541 5.20829 4.9541 5.50002C4.9541 5.79176 5.06999 6.07155 5.27628 6.27784C5.48257 6.48413 5.76236 6.60002 6.0541 6.60002Z" fill="#C21D00"/>
<path d="M11.5541 6.60002H12.6541C12.9458 6.60002 13.2256 6.48413 13.4319 6.27784C13.6382 6.07155 13.7541 5.79176 13.7541 5.50002C13.7541 5.20829 13.6382 4.9285 13.4319 4.72221C13.2256 4.51592 12.9458 4.40002 12.6541 4.40002H11.5541C11.2624 4.40002 10.9826 4.51592 10.7763 4.72221C10.57 4.9285 10.4541 5.20829 10.4541 5.50002C10.4541 5.79176 10.57 6.07155 10.7763 6.27784C10.9826 6.48413 11.2624 6.60002 11.5541 6.60002Z" fill="#C21D00"/>
<path d="M17.0541 6.60002H18.1541C18.4458 6.60002 18.7256 6.48413 18.9319 6.27784C19.1382 6.07155 19.2541 5.79176 19.2541 5.50002C19.2541 5.20829 19.1382 4.9285 18.9319 4.72221C18.7256 4.51592 18.4458 4.40002 18.1541 4.40002H17.0541C16.7624 4.40002 16.4826 4.51592 16.2763 4.72221C16.07 4.9285 15.9541 5.20829 15.9541 5.50002C15.9541 5.79176 16.07 6.07155 16.2763 6.27784C16.4826 6.48413 16.7624 6.60002 17.0541 6.60002Z" fill="#C21D00"/>
<path d="M43.454 6.60002H50.054C50.3457 6.60002 50.6255 6.48413 50.8318 6.27784C51.0381 6.07155 51.154 5.79176 51.154 5.50002C51.154 5.20829 51.0381 4.9285 50.8318 4.72221C50.6255 4.51592 50.3457 4.40002 50.054 4.40002H43.454C43.1623 4.40002 42.8825 4.51592 42.6762 4.72221C42.4699 4.9285 42.354 5.20829 42.354 5.50002C42.354 5.79176 42.4699 6.07155 42.6762 6.27784C42.8825 6.48413 43.1623 6.60002 43.454 6.60002Z" fill="#240B36"/>
<path d="M19.2543 22H48.9543C49.246 22 49.5258 21.8842 49.7321 21.6779C49.9384 21.4716 50.0543 21.1918 50.0543 20.9C50.0543 20.6083 49.9384 20.3285 49.7321 20.1222C49.5258 19.9159 49.246 19.8 48.9543 19.8H19.2543C18.9626 19.8 18.6828 19.9159 18.4765 20.1222C18.2702 20.3285 18.1543 20.6083 18.1543 20.9C18.1543 21.1918 18.2702 21.4716 18.4765 21.6779C18.6828 21.8842 18.9626 22 19.2543 22Z" fill="#240B36"/>
<path d="M43.1319 42.1224C42.9256 41.9161 42.6458 41.8003 42.3542 41.8003C42.0625 41.8003 41.7827 41.9161 41.5765 42.1224L36.0765 47.6224C35.8702 47.8286 35.7544 48.1084 35.7544 48.4001C35.7544 48.6917 35.8702 48.9715 36.0765 49.1778L41.5765 54.6778C41.7839 54.8781 42.0618 54.989 42.3502 54.9865C42.6386 54.984 42.9145 54.8683 43.1185 54.6644C43.3224 54.4604 43.4381 54.1845 43.4406 53.8961C43.4431 53.6077 43.3322 53.3298 43.1319 53.1224L38.4096 48.4001L43.1319 43.6778C43.3381 43.4715 43.4539 43.1917 43.4539 42.9001C43.4539 42.6084 43.3381 42.3286 43.1319 42.1224Z" fill="#240B36"/>
<path d="M54.7767 42.1224C54.5705 42.3286 54.4547 42.6084 54.4547 42.9001C54.4547 43.1917 54.5705 43.4715 54.7767 43.6778L59.499 48.4001L54.7767 53.1224C54.6717 53.2238 54.5879 53.3452 54.5302 53.4794C54.4726 53.6136 54.4422 53.758 54.441 53.904C54.4397 54.0501 54.4675 54.1949 54.5228 54.3301C54.5781 54.4653 54.6598 54.5881 54.7631 54.6914C54.8664 54.7947 54.9892 54.8764 55.1244 54.9317C55.2596 54.987 55.4044 55.0148 55.5505 55.0135C55.6965 55.0123 55.8409 54.9819 55.9751 54.9243C56.1093 54.8666 56.2307 54.7828 56.3321 54.6778L61.8321 49.1778C62.0384 48.9715 62.1542 48.6917 62.1542 48.4001C62.1542 48.1084 62.0384 47.8286 61.8321 47.6224L56.3321 42.1224C56.1259 41.9161 55.8461 41.8003 55.5544 41.8003C55.2628 41.8003 54.983 41.9161 54.7767 42.1224Z" fill="#240B36"/>
<path d="M51.502 40.7572C51.2254 40.6653 50.9236 40.6868 50.6629 40.8172C50.4022 40.9475 50.2039 41.176 50.1116 41.4524L45.7116 54.6524C45.6659 54.7897 45.6478 54.9346 45.6581 55.0788C45.6684 55.2231 45.7071 55.3639 45.7719 55.4932C45.8366 55.6225 45.9262 55.7378 46.0355 55.8325C46.1448 55.9272 46.2717 55.9994 46.409 56.0451C46.5462 56.0907 46.6911 56.1089 46.8353 56.0985C46.9796 56.0882 47.1204 56.0495 47.2497 55.9848C47.379 55.92 47.4943 55.8304 47.589 55.7211C47.6837 55.6118 47.7559 55.4849 47.8016 55.3477L52.2016 42.1477C52.247 42.0104 52.265 41.8656 52.2544 41.7214C52.2438 41.5772 52.2049 41.4366 52.14 41.3074C52.075 41.1783 51.9852 41.0633 51.8757 40.9689C51.7662 40.8744 51.6392 40.8025 51.502 40.7572Z" fill="#240B36"/>
</g>
<defs>
<clipPath id="clip0_380_1721">
<rect width="66" height="66" fill="white" transform="translate(0.554199)"/>
</clipPath>
</defs>
</svg>
