<svg width="74" height="67" viewBox="0 0 74 67" fill="none" xmlns="http://www.w3.org/2000/svg">
<g clip-path="url(#clip0_380_1673)">
<path d="M55.0568 18.3341H63.0081C63.3094 18.3341 63.5983 18.2177 63.8113 18.0106C64.0244 17.8035 64.144 17.5226 64.144 17.2297C64.144 16.9368 64.0244 16.6559 63.8113 16.4488C63.5983 16.2417 63.3094 16.1254 63.0081 16.1254H55.0568C54.7555 16.1254 54.4666 16.2417 54.2536 16.4488C54.0406 16.6559 53.9209 16.9368 53.9209 17.2297C53.9209 17.5226 54.0406 17.8035 54.2536 18.0106C54.4666 18.2177 54.7555 18.3341 55.0568 18.3341Z" fill="#240B36"/>
<path d="M49.3771 22.7514H63.008C63.3092 22.7514 63.5982 22.6351 63.8112 22.428C64.0242 22.2209 64.1439 21.94 64.1439 21.6471C64.1439 21.3542 64.0242 21.0733 63.8112 20.8662C63.5982 20.6591 63.3092 20.5427 63.008 20.5427H49.3771C49.0759 20.5427 48.7869 20.6591 48.5739 20.8662C48.3609 21.0733 48.2412 21.3542 48.2412 21.6471C48.2412 21.94 48.3609 22.2209 48.5739 22.428C48.7869 22.6351 49.0759 22.7514 49.3771 22.7514Z" fill="#240B36"/>
<path d="M49.3771 27.1689H63.008C63.3092 27.1689 63.5982 27.0526 63.8112 26.8455C64.0242 26.6383 64.1439 26.3574 64.1439 26.0646C64.1439 25.7717 64.0242 25.4908 63.8112 25.2837C63.5982 25.0766 63.3092 24.9602 63.008 24.9602H49.3771C49.0759 24.9602 48.7869 25.0766 48.5739 25.2837C48.3609 25.4908 48.2412 25.7717 48.2412 26.0646C48.2412 26.3574 48.3609 26.6383 48.5739 26.8455C48.7869 27.0526 49.0759 27.1689 49.3771 27.1689Z" fill="#240B36"/>
<path d="M49.3771 31.5863H63.008C63.3092 31.5863 63.5982 31.4699 63.8112 31.2628C64.0242 31.0557 64.1439 30.7748 64.1439 30.4819C64.1439 30.189 64.0242 29.9081 63.8112 29.701C63.5982 29.4939 63.3092 29.3776 63.008 29.3776H49.3771C49.0759 29.3776 48.7869 29.4939 48.5739 29.701C48.3609 29.9081 48.2412 30.189 48.2412 30.4819C48.2412 30.7748 48.3609 31.0557 48.5739 31.2628C48.7869 31.4699 49.0759 31.5863 49.3771 31.5863Z" fill="#240B36"/>
<path d="M49.3771 36.0036H63.008C63.3092 36.0036 63.5982 35.8873 63.8112 35.6802C64.0242 35.4731 64.1439 35.1922 64.1439 34.8993C64.1439 34.6064 64.0242 34.3255 63.8112 34.1184C63.5982 33.9113 63.3092 33.7949 63.008 33.7949H49.3771C49.0759 33.7949 48.7869 33.9113 48.5739 34.1184C48.3609 34.3255 48.2412 34.6064 48.2412 34.8993C48.2412 35.1922 48.3609 35.4731 48.5739 35.6802C48.7869 35.8873 49.0759 36.0036 49.3771 36.0036Z" fill="#240B36"/>
<path d="M49.3771 40.4211H57.3284C57.6297 40.4211 57.9186 40.3048 58.1317 40.0976C58.3447 39.8905 58.4644 39.6096 58.4644 39.3168C58.4644 39.0239 58.3447 38.743 58.1317 38.5359C57.9186 38.3288 57.6297 38.2124 57.3284 38.2124H49.3771C49.0759 38.2124 48.7869 38.3288 48.5739 38.5359C48.3609 38.743 48.2412 39.0239 48.2412 39.3168C48.2412 39.6096 48.3609 39.8905 48.5739 40.0976C48.7869 40.3048 49.0759 40.4211 49.3771 40.4211Z" fill="#240B36"/>
<path d="M67.5517 0.664429H6.21289C5.30994 0.667051 4.44474 1.01695 3.80625 1.6377C3.16776 2.25845 2.80787 3.09961 2.80518 3.97748V63.6125C2.80787 64.4903 3.16776 65.3315 3.80625 65.9523C4.44474 66.573 5.30994 66.9229 6.21289 66.9255H67.5517C68.4547 66.9229 69.3199 66.573 69.9584 65.9523C70.5969 65.3315 70.9568 64.4903 70.9595 63.6125V3.97748C70.9568 3.09961 70.5969 2.25845 69.9584 1.6377C69.3199 1.01695 68.4547 0.667051 67.5517 0.664429ZM68.6876 63.6125C68.6876 63.9054 68.568 64.1863 68.3549 64.3934C68.1419 64.6005 67.853 64.7168 67.5517 64.7168H6.21289C5.91163 64.7168 5.62271 64.6005 5.40968 64.3934C5.19666 64.1863 5.07699 63.9054 5.07699 63.6125V11.7079H68.6876V63.6125ZM68.6876 9.49924H5.07699V3.97748C5.07699 3.68459 5.19666 3.4037 5.40968 3.19659C5.62271 2.98948 5.91163 2.87313 6.21289 2.87313H67.5517C67.853 2.87313 68.1419 2.98948 68.3549 3.19659C68.568 3.4037 68.6876 3.68459 68.6876 3.97748V9.49924Z" fill="#240B36"/>
<path d="M9.62044 5.08179H8.48454C8.18328 5.08179 7.89436 5.19814 7.68133 5.40524C7.46831 5.61235 7.34863 5.89325 7.34863 6.18614C7.34863 6.47903 7.46831 6.75993 7.68133 6.96703C7.89436 7.17414 8.18328 7.29049 8.48454 7.29049H9.62044C9.9217 7.29049 10.2106 7.17414 10.4236 6.96703C10.6367 6.75993 10.7563 6.47903 10.7563 6.18614C10.7563 5.89325 10.6367 5.61235 10.4236 5.40524C10.2106 5.19814 9.9217 5.08179 9.62044 5.08179Z" fill="#C21D00"/>
<path d="M15.3001 5.08179H14.1642C13.863 5.08179 13.574 5.19814 13.361 5.40524C13.148 5.61235 13.0283 5.89325 13.0283 6.18614C13.0283 6.47903 13.148 6.75993 13.361 6.96703C13.574 7.17414 13.863 7.29049 14.1642 7.29049H15.3001C15.6014 7.29049 15.8903 7.17414 16.1033 6.96703C16.3164 6.75993 16.436 6.47903 16.436 6.18614C16.436 5.89325 16.3164 5.61235 16.1033 5.40524C15.8903 5.19814 15.6014 5.08179 15.3001 5.08179Z" fill="#C21D00"/>
<path d="M20.9798 5.08179H19.8439C19.5427 5.08179 19.2537 5.19814 19.0407 5.40524C18.8277 5.61235 18.708 5.89325 18.708 6.18614C18.708 6.47903 18.8277 6.75993 19.0407 6.96703C19.2537 7.17414 19.5427 7.29049 19.8439 7.29049H20.9798C21.2811 7.29049 21.57 7.17414 21.783 6.96703C21.996 6.75993 22.1157 6.47903 22.1157 6.18614C22.1157 5.89325 21.996 5.61235 21.783 5.40524C21.57 5.19814 21.2811 5.08179 20.9798 5.08179Z" fill="#C21D00"/>
<path d="M65.2801 5.08179H64.1442C63.8429 5.08179 63.554 5.19814 63.341 5.40524C63.128 5.61235 63.0083 5.89325 63.0083 6.18614C63.0083 6.47903 63.128 6.75993 63.341 6.96703C63.554 7.17414 63.8429 7.29049 64.1442 7.29049H65.2801C65.5814 7.29049 65.8703 7.17414 66.0833 6.96703C66.2963 6.75993 66.416 6.47903 66.416 6.18614C66.416 5.89325 66.2963 5.61235 66.0833 5.40524C65.8703 5.19814 65.5814 5.08179 65.2801 5.08179Z" fill="#240B36"/>
<path d="M49.3771 18.3341H50.513C50.8143 18.3341 51.1032 18.2177 51.3162 18.0106C51.5293 17.8035 51.6489 17.5226 51.6489 17.2297C51.6489 16.9368 51.5293 16.6559 51.3162 16.4488C51.1032 16.2417 50.8143 16.1254 50.513 16.1254H49.3771C49.0759 16.1254 48.7869 16.2417 48.5739 16.4488C48.3609 16.6559 48.2412 16.9368 48.2412 17.2297C48.2412 17.5226 48.3609 17.8035 48.5739 18.0106C48.7869 18.2177 49.0759 18.3341 49.3771 18.3341Z" fill="#240B36"/>
<path d="M63.0081 38.2124H61.8722C61.571 38.2124 61.282 38.3288 61.069 38.5359C60.856 38.743 60.7363 39.0239 60.7363 39.3168C60.7363 39.6096 60.856 39.8905 61.069 40.0976C61.282 40.3048 61.571 40.4211 61.8722 40.4211H63.0081C63.3094 40.4211 63.5983 40.3048 63.8113 40.0976C64.0244 39.8905 64.144 39.6096 64.144 39.3168C64.144 39.0239 64.0244 38.743 63.8113 38.5359C63.5983 38.3288 63.3094 38.2124 63.0081 38.2124Z" fill="#240B36"/>
<path d="M59.6003 5.08179H32.3385C32.0373 5.08179 31.7484 5.19814 31.5353 5.40524C31.3223 5.61235 31.2026 5.89325 31.2026 6.18614C31.2026 6.47903 31.3223 6.75993 31.5353 6.96703C31.7484 7.17414 32.0373 7.29049 32.3385 7.29049H59.6003C59.9015 7.29049 60.1904 7.17414 60.4035 6.96703C60.6165 6.75993 60.7362 6.47903 60.7362 6.18614C60.7362 5.89325 60.6165 5.61235 60.4035 5.40524C60.1904 5.19814 59.9015 5.08179 59.6003 5.08179Z" fill="#C21D00"/>
<path d="M10.7565 40.4211H43.6978C43.999 40.4211 44.2879 40.3048 44.501 40.0976C44.714 39.8905 44.8337 39.6096 44.8337 39.3168V17.2297C44.8337 16.9368 44.714 16.6559 44.501 16.4488C44.2879 16.2417 43.999 16.1254 43.6978 16.1254H10.7565C10.4552 16.1254 10.1663 16.2417 9.9533 16.4488C9.74028 16.6559 9.62061 16.9368 9.62061 17.2297V39.3168C9.62061 39.6096 9.74028 39.8905 9.9533 40.0976C10.1663 40.3048 10.4552 40.4211 10.7565 40.4211ZM25.7709 33.9474L25.7845 33.9264L32.3387 23.731L41.6531 38.2124H23.0243L25.7709 33.9474ZM20.3504 38.2124H12.8784L19.8437 28.0524L23.4786 33.3533L20.3504 38.2124ZM42.5618 18.3341V35.467L33.3019 21.0618C33.193 20.9112 33.0485 20.7883 32.8804 20.7034C32.7124 20.6186 32.5258 20.5743 32.3364 20.5743C32.1471 20.5743 31.9605 20.6186 31.7924 20.7034C31.6244 20.7883 31.4798 20.9112 31.3709 21.0618L24.794 31.2947L20.7843 25.4516C20.6744 25.3088 20.5317 25.1928 20.3677 25.1129C20.2036 25.0331 20.0227 24.9915 19.8392 24.9915C19.6557 24.9915 19.4748 25.0331 19.3107 25.1129C19.1467 25.1928 19.004 25.3088 18.8941 25.4516L11.8924 35.6724V18.3341H42.5618Z" fill="#240B36"/>
<path d="M43.6979 60.2994H30.0671C29.7658 60.2994 29.4769 60.1831 29.2639 59.976C29.0508 59.7689 28.9312 59.488 28.9312 59.1951V45.9429C28.9312 45.65 29.0508 45.3691 29.2639 45.162C29.4769 44.9549 29.7658 44.8385 30.0671 44.8385H43.6979C43.9992 44.8385 44.2881 44.9549 44.5011 45.162C44.7141 45.3691 44.8338 45.65 44.8338 45.9429V59.1951C44.8338 59.488 44.7141 59.7689 44.5011 59.976C44.2881 60.1831 43.9992 60.2994 43.6979 60.2994ZM31.203 58.0907H42.562V47.0472H31.203V58.0907Z" fill="#240B36"/>
<path d="M63.008 60.2994H49.3771C49.0759 60.2994 48.7869 60.1831 48.5739 59.976C48.3609 59.7689 48.2412 59.488 48.2412 59.1951V45.9429C48.2412 45.65 48.3609 45.3691 48.5739 45.162C48.7869 44.9549 49.0759 44.8385 49.3771 44.8385H63.008C63.3092 44.8385 63.5982 44.9549 63.8112 45.162C64.0242 45.3691 64.1439 45.65 64.1439 45.9429V59.1951C64.1439 59.488 64.0242 59.7689 63.8112 59.976C63.5982 60.1831 63.3092 60.2994 63.008 60.2994ZM50.513 58.0907H61.8721V47.0472H50.513V58.0907Z" fill="#240B36"/>
<path d="M24.3874 60.2994H10.7565C10.4552 60.2994 10.1663 60.1831 9.9533 59.976C9.74028 59.7689 9.62061 59.488 9.62061 59.1951V45.9429C9.62061 45.65 9.74028 45.3691 9.9533 45.162C10.1663 44.9549 10.4552 44.8385 10.7565 44.8385H24.3874C24.6886 44.8385 24.9775 44.9549 25.1906 45.162C25.4036 45.3691 25.5233 45.65 25.5233 45.9429V59.1951C25.5233 59.488 25.4036 59.7689 25.1906 59.976C24.9775 60.1831 24.6886 60.2994 24.3874 60.2994ZM11.8924 58.0907H23.2515V47.0472H11.8924V58.0907Z" fill="#240B36"/>
</g>
<defs>
<clipPath id="clip0_380_1673">
<rect width="72.6979" height="66.6397" fill="white" transform="translate(0.533203)"/>
</clipPath>
</defs>
</svg>
