<svg width="67" height="66" viewBox="0 0 67 66" fill="none" xmlns="http://www.w3.org/2000/svg">
<path d="M59.8638 0H7.23304C3.44306 0 0.368164 3.0417 0.368164 6.79077V58.8534C0.368164 62.6024 3.44306 65.6441 7.23304 65.6441H59.8638C63.6537 65.6441 66.7286 62.6024 66.7286 58.8534V6.79077C66.7286 3.0417 63.6537 0 59.8638 0ZM64.4403 58.8534C64.4403 61.3433 62.3809 63.3806 59.8638 63.3806H7.23304C4.71592 63.3806 2.65646 61.3433 2.65646 58.8534V11.318H64.4403V58.8534ZM64.4403 9.05437H2.65646V6.79077C2.65646 4.30082 4.71592 2.26359 7.23304 2.26359H59.8638C60.0783 2.26359 60.2785 2.27774 60.4787 2.30603C62.7098 2.60313 64.4403 4.49889 64.4403 6.79077V9.05437Z" fill="#240B36"/>
<path d="M9.52171 4.1731C8.69221 4.1731 8.02002 4.83803 8.02002 5.65858C8.02002 6.47913 8.69221 7.14406 9.52171 7.14406C10.3512 7.14406 11.0234 6.47913 11.0234 5.65858C11.0234 4.83803 10.3512 4.1731 9.52171 4.1731Z" fill="#C21D00"/>
<path d="M16.3865 4.17334C15.557 4.17334 14.8848 4.83827 14.8848 5.65882C14.8848 6.47937 15.557 7.1443 16.3865 7.1443C17.216 7.1443 17.8881 6.47937 17.8881 5.65882C17.8881 4.83827 17.216 4.17334 16.3865 4.17334Z" fill="#C21D00"/>
<path d="M23.2512 4.17334C22.4217 4.17334 21.7495 4.83827 21.7495 5.65882C21.7495 6.47937 22.4217 7.1443 23.2512 7.1443C24.0807 7.1443 24.7529 6.47937 24.7529 5.65882C24.7529 4.83827 24.0807 4.17334 23.2512 4.17334Z" fill="#C21D00"/>
<path d="M48.7086 20.3724H56.4316C57.0609 20.3724 57.5757 19.863 57.5757 19.2406C57.5757 18.6181 57.0609 18.1088 56.4316 18.1088H48.7086C48.0793 18.1088 47.5645 18.6181 47.5645 19.2406C47.5645 19.863 48.0793 20.3724 48.7086 20.3724Z" fill="#240B36"/>
<path d="M48.7086 29.4267H56.4316C57.0609 29.4267 57.5757 28.9174 57.5757 28.2949C57.5757 27.6724 57.0609 27.1631 56.4316 27.1631H48.7086C48.0793 27.1631 47.5645 27.6724 47.5645 28.2949C47.5645 28.9174 48.0793 29.4267 48.7086 29.4267Z" fill="#240B36"/>
<path d="M48.7086 38.481H56.4316C57.0609 38.481 57.5757 37.9717 57.5757 37.3492C57.5757 36.7267 57.0609 36.2174 56.4316 36.2174H48.7086C48.0793 36.2174 47.5645 36.7267 47.5645 37.3492C47.5645 37.9717 48.0793 38.481 48.7086 38.481Z" fill="#240B36"/>
<path d="M48.7086 47.5353H56.4316C57.0609 47.5353 57.5757 47.026 57.5757 46.4035C57.5757 45.781 57.0609 45.2717 56.4316 45.2717H48.7086C48.0793 45.2717 47.5645 45.781 47.5645 46.4035C47.5645 47.026 48.0793 47.5353 48.7086 47.5353Z" fill="#240B36"/>
<path d="M10.6656 56.5898H56.4315C57.0608 56.5898 57.5756 56.0805 57.5756 55.458C57.5756 54.8355 57.0608 54.3262 56.4315 54.3262H10.6656C10.0364 54.3262 9.52148 54.8355 9.52148 55.458C9.52148 56.0805 10.0364 56.5898 10.6656 56.5898Z" fill="#240B36"/>
<path d="M20.2771 39.1034C20.4202 39.5702 20.8635 39.8956 21.3641 39.8956C21.8647 39.8956 22.308 39.5702 22.451 39.1034L25.0969 30.6856L27.7427 39.1034C27.8857 39.5702 28.3291 39.8956 28.8296 39.8956C29.3302 39.8956 29.7736 39.5702 29.9166 39.1034L33.6637 27.2195C33.8496 26.6253 33.5206 25.9887 32.9057 25.8048C32.305 25.6209 31.6614 25.9462 31.4755 26.5546L28.8296 34.9723L26.1838 26.5546C26.0408 26.0877 25.5974 25.7623 25.0969 25.7623C24.5963 25.7623 24.1529 26.0877 24.0099 26.5546L21.3641 34.9723L18.7182 26.5546C18.5323 25.9604 17.8887 25.6209 17.2881 25.8048C16.6874 25.9887 16.3441 26.6253 16.5301 27.2195L20.2771 39.1034Z" fill="#C21D00"/>
<path d="M25.1105 48.2427C33.7059 48.2427 40.6995 41.3246 40.6995 32.822C40.6995 24.3193 33.7059 17.4012 25.1105 17.4012C16.5151 17.4012 9.52148 24.3193 9.52148 32.822C9.52148 41.3246 16.5151 48.2427 25.1105 48.2427ZM25.1105 19.6648C32.4473 19.6648 38.4112 25.5643 38.4112 32.822C38.4112 40.0796 32.4473 45.9791 25.1105 45.9791C17.7736 45.9791 11.8098 40.0796 11.8098 32.822C11.8098 25.5643 17.7736 19.6648 25.1105 19.6648Z" fill="#240B36"/>
</svg>
