<svg viewBox="0 0 18 18" xmlns="http://www.w3.org/2000/svg" fill="none">
  <path d="M8.6962 4.23516C6.22903 4.23516 4.239 6.22521 4.239 8.69242C4.239 11.1596 6.22903 13.1497 8.6962 13.1497C11.1634 13.1497 13.1534 11.1596 13.1534 8.69242C13.1534 6.22522 11.1634 4.23516 8.6962 4.23516ZM8.6962 11.5902C7.10185 11.5902 5.79844 10.2907 5.79844 8.69242C5.79844 7.09417 7.09797 5.79462 8.6962 5.79462C10.2944 5.79462 11.594 7.09417 11.594 8.69242C11.594 10.2907 10.2906 11.5902 8.6962 11.5902ZM14.3754 4.05284C14.3754 4.63085 13.9098 5.09248 13.3357 5.09248C12.7577 5.09248 12.2961 4.62697 12.2961 4.05284C12.2961 3.47871 12.7616 3.0132 13.3357 3.0132C13.9098 3.0132 14.3754 3.47871 14.3754 4.05284ZM17.3274 5.10799C17.2615 3.71534 16.9434 2.48175 15.9232 1.46538C14.9068 0.449022 13.6732 0.130925 12.2806 0.0610982C10.8453 -0.0203661 6.54324 -0.0203661 5.10794 0.0610982C3.71918 0.127045 2.4856 0.445143 1.46537 1.46151C0.445138 2.47787 0.130922 3.71147 0.0610974 5.10411C-0.0203658 6.53943 -0.0203658 10.8415 0.0610974 12.2768C0.127043 13.6695 0.445138 14.9031 1.46537 15.9194C2.4856 16.9358 3.7153 17.2539 5.10794 17.3237C6.54324 17.4052 10.8453 17.4052 12.2806 17.3237C13.6732 17.2578 14.9068 16.9397 15.9232 15.9194C16.9395 14.9031 17.2576 13.6695 17.3274 12.2768C17.4089 10.8415 17.4089 6.54331 17.3274 5.10799ZM15.4732 13.8169C15.1706 14.5772 14.5848 15.163 13.8206 15.4695C12.6763 15.9233 9.96082 15.8186 8.6962 15.8186C7.43158 15.8186 4.71226 15.9194 3.57177 15.4695C2.81145 15.1669 2.22569 14.5811 1.91923 13.8169C1.46537 12.6725 1.57011 9.95705 1.57011 8.69242C1.57011 7.42778 1.46925 4.70843 1.91923 3.56793C2.22181 2.8076 2.80757 2.22184 3.57177 1.91538C4.71614 1.46151 7.43158 1.56624 8.6962 1.56624C9.96082 1.56624 12.6801 1.46538 13.8206 1.91538C14.581 2.21796 15.1667 2.80372 15.4732 3.56793C15.927 4.71231 15.8223 7.42778 15.8223 8.69242C15.8223 9.95705 15.927 12.6764 15.4732 13.8169Z" fill="#7F6F8A"/>
</svg>
