<svg viewBox="0 0 18 18" xmlns="http://www.w3.org/2000/svg" fill="none">
  <path d="M3.89154 17.3854H0.287169V5.77806H3.89154V17.3854ZM2.08742 4.19471C0.934855 4.19471 0 3.24005 0 2.08746C0 0.934588 0.934568 0 2.08742 0C3.24026 0 4.17483 0.934588 4.17483 2.08746C4.17483 3.24005 3.23959 4.19471 2.08742 4.19471ZM17.3816 17.3854H13.7849V11.735C13.7849 10.3884 13.7578 8.66147 11.911 8.66147C10.037 8.66147 9.74981 10.1245 9.74981 11.638V17.3854H6.14932V5.77806H9.60623V7.36141H9.65668C10.1379 6.44944 11.3133 5.48701 13.067 5.48701C16.7148 5.48701 17.3854 7.8892 17.3854 11.0093V17.3854H17.3816Z" fill="#7F6F8A"/>
</svg>
