<svg viewBox="0 0 19 17" xmlns="http://www.w3.org/2000/svg" fill="none">
  <path d="M18.028 13.3165C17.8441 13.7456 17.0667 14.0608 15.6508 14.2806C15.578 14.3789 15.5176 14.7989 15.4212 15.126C15.3638 15.3224 15.2228 15.439 14.9932 15.439L14.9827 15.4388C14.6512 15.4388 14.305 15.2863 13.6116 15.2863C12.6757 15.2863 12.3531 15.4995 11.6264 16.0128C10.8559 16.5576 10.117 17.0279 9.01396 16.9797C7.89716 17.0621 6.96624 16.383 6.44232 16.0126C5.71132 15.4959 5.38968 15.2863 4.45756 15.2863C3.79184 15.2863 3.37288 15.4529 3.08646 15.4529C2.80156 15.4529 2.69075 15.2792 2.64809 15.1338C2.5527 14.8096 2.49267 14.3835 2.41789 14.2823C1.68812 14.169 0.0424999 13.8819 0.000575008 13.1477C-0.00994727 12.9566 0.12506 12.7883 0.313847 12.7571C2.76945 12.3528 3.87548 9.83146 3.92146 9.72443C3.92408 9.71821 3.92694 9.71229 3.92983 9.70625C4.06086 9.44027 4.09019 9.21752 4.01675 9.04445C3.83853 8.62464 3.06843 8.47402 2.74443 8.34584C1.90752 8.01531 1.79106 7.63552 1.84057 7.37522C1.92658 6.92223 2.60726 6.64347 3.00522 6.82988C3.31998 6.97742 3.59962 7.0521 3.8362 7.0521C4.01343 7.0521 4.12601 7.00961 4.1877 6.97549C4.1156 5.70729 3.9371 3.89499 4.38839 2.8829C5.58025 0.210789 8.10644 0.00314081 8.8518 0.00314081C8.88512 0.00314081 9.17439 0 9.20859 0C11.0489 0 12.8172 0.945075 13.6807 2.88121C14.1316 3.89228 13.9541 5.6971 13.8817 6.97521C13.9375 7.00598 14.0354 7.04374 14.1851 7.05069C14.4109 7.0406 14.6726 6.96638 14.9639 6.82988C15.1787 6.72944 15.4723 6.74303 15.6867 6.83193L15.6877 6.83228C16.0221 6.95174 16.2325 7.19277 16.2378 7.46292C16.2443 7.80689 15.9371 8.10397 15.3246 8.34581C15.2499 8.37528 15.1589 8.40422 15.0623 8.43492C14.7165 8.54453 14.1941 8.71036 14.0524 9.04442C13.979 9.21748 14.0081 9.44006 14.1392 9.70604C14.1423 9.71197 14.1451 9.71811 14.1476 9.72422C14.1935 9.83115 15.2986 12.3519 17.7554 12.7569C17.9822 12.7942 18.1493 13.0348 18.028 13.3165Z" fill="#7F6F8A"/>
</svg>
